<?xml version="1.0" encoding="UTF-8"?>
<!-- Generated by jsxcad -->
<!DOCTYPE svg PUBLIC "-//W3C//DTD SVG 1.1 Tiny//EN" "http://www.w3.org/Graphics/SVG/1.1/DTD/svg11-tiny.dtd">
<svg viewBox="-250 -250 500 500" width="500" height="500" xmlns="http://www.w3.org/2000/svg"><path d="M-118.48334408473178,-86.08966761296591L-75.47819036910501,-74.75223607137919L-52.06290710807856,-81.33446955936651z" style="fill:rgb(83,212,212)"/><path d="M-42.68690122892503,-63.433313383370354L-75.47819036910501,-74.75223607137919L-65.78512814219782,-57.05868375023931z" style="fill:rgb(127,37,217)"/><path d="M-4.394046477506827,-94.73458466686887L-118.48334408473178,-86.08966761296591L-52.06290710807856,-81.33446955936651z" style="fill:rgb(83,212,212)"/><path d="M-42.68690122892503,-63.433313383370354L-52.06290710807856,-81.33446955936651L-75.47819036910501,-74.75223607137919z" style="fill:rgb(127,37,217)"/><path d="M-118.48334408473178,-86.08966761296591L-4.394046477506827,-94.73458466686887L19.869599909616966,-101.55529543185436zM116.75874306163797,-153.6211541089181L-118.48334408473178,-86.08966761296591L69.28139939400751,-115.44536518085482zM69.28139939400751,-115.44536518085482L-118.48334408473178,-86.08966761296591L19.869599909616966,-101.55529543185436z" style="fill:rgb(83,212,212)"/><path d="M28.244622987957086,-83.00892323854384L-4.394046477506827,-94.73458466686887L4.323172527580766,-76.40710713703375z" style="fill:rgb(127,37,217)"/><path d="M-65.78512814219782,-57.05868375023931L-75.47819036910501,-74.75223607137919L-79.57034606735371,-22.359434633044295z" style="fill:rgb(247,158,158)"/><path d="M28.244622987957086,-83.00892323854384L19.869599909616966,-101.55529543185436L-4.394046477506827,-94.73458466686887z" style="fill:rgb(127,37,217)"/><path d="M-65.78512814219782,-57.05868375023931L-79.57034606735371,-22.359434633044295L-69.29221459636263,-4.597335646808376z" style="fill:rgb(247,158,158)"/><path d="M101.73472386933774,-103.29065220305753L69.28139939400751,-115.44536518085482L76.94524616582561,-96.44927270342836z" style="fill:rgb(127,37,217)"/><path d="M4.323172527580766,-76.40710713703375L-4.394046477506827,-94.73458466686887L-4.636775925602448,-42.45593688290221z" style="fill:rgb(247,158,158)"/><path d="M116.75874306163797,-153.6211541089181L69.28139939400751,-115.44536518085482L94.44037055201564,-122.51775768642551z" style="fill:rgb(83,212,212)"/><path d="M101.73472386933774,-103.29065220305753L94.44037055201564,-122.51775768642551L69.28139939400751,-115.44536518085482z" style="fill:rgb(127,37,217)"/><path d="M4.323172527580766,-76.40710713703375L-4.636775925602448,-42.45593688290221L4.5579257297028075,-24.022275346894283zM76.94524616582561,-96.44927270342836L69.28139939400751,-115.44536518085482L73.18222526700562,-63.326286373790815z" style="fill:rgb(247,158,158)"/><path d="M-90.16151755735717,113.24174620975312L-75.47819036910501,-74.75223607137919L-118.48334408473178,-86.08966761296591z" style="fill:rgb(83,212,212)"/><path d="M76.94524616582561,-96.44927270342836L73.18222526700562,-63.326286373790815L81.20251108568773,-44.18224267131133z" style="fill:rgb(247,158,158)"/><path d="M-54.90312257872048,-28.974958996047274L-79.57034606735371,-22.359434633044295L-84.94321415266288,46.43061919321686zM-5.267194963474831,93.32262272661939L-4.394046477506827,-94.73458466686887L-52.06290710807856,-81.33446955936651zM-5.267194963474831,93.32262272661939L-52.06290710807856,-81.33446955936651L-54.90312257872048,-28.974958996047274zM20.974161951024684,-49.32455772373114L-4.636775925602448,-42.45593688290221L-4.956188831561703,26.338661132741045zM83.35031259693379,72.52990314260715L69.28139939400751,-115.44536518085482L19.869599909616966,-101.55529543185436zM-54.90312257872048,-28.974958996047274L-84.94321415266288,46.43061919321686L-58.63499289928379,39.82225216283363z" style="fill:rgb(83,212,212)"/><path d="M123.5462632263335,-134.27419167859637L116.75874306163797,-153.6211541089181L149.48393056816667,95.12645429454396z" style="fill:rgb(247,158,158)"/><path d="M-47.97886491991967,57.77166244590753L-84.94321415266288,46.43061919321686L-73.8877713556536,64.14608078450638z" style="fill:rgb(127,37,217)"/><path d="M83.35031259693379,72.52990314260715L19.869599909616966,-101.55529543185436L20.974161951024684,-49.32455772373114zM99.79209565284208,-70.46280761772441L73.18222526700562,-63.326286373790815L78.32740404467815,5.418637115488154z" style="fill:rgb(83,212,212)"/><path d="M-47.97886491991967,57.77166244590753L-58.63499289928379,39.82225216283363L-84.94321415266288,46.43061919321686z" style="fill:rgb(127,37,217)"/><path d="M149.48393056816667,95.12645429454396L116.75874306163797,-153.6211541089181L94.44037055201564,-122.51775768642551zM-90.16151755735717,113.24174620975312L-118.48334408473178,-86.08966761296591L-149.32700022967936,162.52354948513235zM20.974161951024684,-49.32455772373114L-4.956188831561703,26.338661132741045L22.428796077156314,19.45982074942114z" style="fill:rgb(83,212,212)"/><path d="M31.8160311963539,38.13958612733502L-4.956188831561703,26.338661132741045L4.866206385949195,44.77009969055168z" style="fill:rgb(127,37,217)"/><path d="M-5.267194963474831,93.32262272661939L-54.90312257872048,-28.974958996047274L-58.63499289928379,39.82225216283363z" style="fill:rgb(83,212,212)"/><path d="M-73.8877713556536,64.14608078450638L-84.94321415266288,46.43061919321686L-90.16151755735717,113.24174620975312z" style="fill:rgb(247,158,158)"/><path d="M31.8160311963539,38.13958612733502L22.428796077156314,19.45982074942114L-4.956188831561703,26.338661132741045z" style="fill:rgb(127,37,217)"/><path d="M149.48393056816667,95.12645429454396L94.44037055201564,-122.51775768642551L99.79209565284208,-70.46280761772441zM99.79209565284208,-70.46280761772441L78.32740404467815,5.418637115488154L106.85664447024192,-1.747627812377791z" style="fill:rgb(83,212,212)"/><path d="M-73.8877713556536,64.14608078450638L-90.16151755735717,113.24174620975312L-78.3412281701083,130.763871493259z" style="fill:rgb(247,158,158)"/><path d="M114.8605733101051,17.707990298558748L78.32740404467815,5.418637115488154L86.805819698732,24.61035188648518z" style="fill:rgb(127,37,217)"/><path d="M83.35031259693379,72.52990314260715L20.974161951024684,-49.32455772373114L22.428796077156314,19.45982074942114z" style="fill:rgb(83,212,212)"/><path d="M4.866206385949195,44.77009969055168L-4.956188831561703,26.338661132741045L-5.267194963474831,93.32262272661939z" style="fill:rgb(247,158,158)"/><path d="M114.8605733101051,17.707990298558748L106.85664447024192,-1.747627812377791L78.32740404467815,5.418637115488154z" style="fill:rgb(127,37,217)"/><path d="M4.866206385949195,44.77009969055168L-5.267194963474831,93.32262272661939L5.165680858719621,111.59738783703585z" style="fill:rgb(247,158,158)"/><path d="M-5.267194963474831,93.32262272661939L-58.63499289928379,39.82225216283363L-62.26250877176856,106.69568398772493z" style="fill:rgb(83,212,212)"/><path d="M86.805819698732,24.61035188648518L78.32740404467815,5.418637115488154L83.35031259693379,72.52990314260715z" style="fill:rgb(247,158,158)"/><path d="M149.48393056816667,95.12645429454396L99.79209565284208,-70.46280761772441L106.85664447024192,-1.747627812377791z" style="fill:rgb(83,212,212)"/><path d="M123.5462632263335,-134.27419167859637L149.48393056816667,95.12645429454396L157.45944516823226,114.6521142942784z" style="fill:rgb(247,158,158)"/><path d="M-62.26250877176856,106.69568398772493L-90.16151755735717,113.24174620975312L-149.32700022967936,162.52354948513235z" style="fill:rgb(83,212,212)"/><path d="M86.805819698732,24.61035188648518L83.35031259693379,72.52990314260715L92.26283352361206,91.60686510322027z" style="fill:rgb(247,158,158)"/><path d="M83.35031259693379,72.52990314260715L22.428796077156314,19.45982074942114L23.84636618299418,86.49157596575354z" style="fill:rgb(83,212,212)"/><path d="M157.45944516823226,114.6521142942784L-149.32700022967936,162.52354948513235L-136.17427400135696,179.39202777234982z" style="fill:rgb(127,37,217)"/><path d="M-62.26250877176856,106.69568398772493L-149.32700022967936,162.52354948513235L149.48393056816667,95.12645429454396zM-5.267194963474831,93.32262272661939L-62.26250877176856,106.69568398772493L149.48393056816667,95.12645429454396zM149.48393056816667,95.12645429454396L106.85664447024192,-1.747627812377791L113.75950636519225,65.39486473292217zM23.84636618299418,86.49157596575354L-5.267194963474831,93.32262272661939L149.48393056816667,95.12645429454396zM149.48393056816667,95.12645429454396L83.35031259693379,72.52990314260715L23.84636618299418,86.49157596575354z" style="fill:rgb(83,212,212)"/><path d="M157.45944516823226,114.6521142942784L149.48393056816667,95.12645429454396L-149.32700022967936,162.52354948513235z" style="fill:rgb(127,37,217)"/><path d="M149.48393056816667,95.12645429454396L113.75950636519225,65.39486473292217L83.35031259693379,72.52990314260715z" style="fill:rgb(83,212,212)"/></svg>
